<svg xmlns="http://www.w3.org/2000/svg" viewBox="0 0 48 48" role="img" aria-label="Maison Bonjour monogramme">
<title>Maison Bonjour monogramme</title>
<circle cx="24" cy="24" r="21.4" fill="none" stroke="#172332" stroke-width="1"/>
<circle cx="24" cy="24" r="18.4" fill="none" stroke="#172332" stroke-width="0.35" stroke-dasharray="1.1 2.1"/>
<polygon points="24.00,6.85 24.53,8.27 26.04,8.34 24.86,9.28 25.26,10.74 24.00,9.90 22.74,10.74 23.14,9.28 21.96,8.34 23.47,8.27" fill="#172332"/>
<path d="M9.400,-2.414 L9.400,-3.296 L10.786,-3.296 L10.786,-12.418 L9.400,-12.418 L9.400,-13.300 L13.891,-13.300 L16.997,-6.315 L20.118,-13.300 L24.600,-13.300 L24.600,-12.418 L23.209,-12.418 L23.209,-3.296 L24.600,-3.296 L24.600,-2.414 L19.001,-2.414 L19.001,-3.296 L20.386,-3.296 L20.386,-11.602 L17.010,-4.010 L15.167,-4.010 L11.805,-11.602 L11.805,-3.296 L13.191,-3.296 L13.191,-2.414 L9.400,-2.414 Z" fill="#172332"/>
<path d="M23.500,0.828 L23.500,-0.317 L25.308,-0.317 L25.308,-12.156 L23.500,-12.156 L23.500,-13.300 L31.875,-13.300 Q34.457,-13.300 35.753,-12.428 Q37.049,-11.559 37.049,-9.809 Q37.049,-8.549 36.153,-7.811 Q35.260,-7.072 33.501,-6.884 Q35.629,-6.684 36.765,-5.749 Q37.900,-4.813 37.900,-3.260 Q37.900,-1.159 36.313,-0.166 Q34.730,0.828 31.354,0.828 L23.500,0.828 Z M28.950,-7.405 L30.188,-7.405 Q31.817,-7.405 32.601,-7.995 Q33.389,-8.586 33.389,-9.809 Q33.389,-11.038 32.626,-11.595 Q31.866,-12.156 30.188,-12.156 L28.950,-12.156 L28.950,-7.405 Z M28.950,-0.317 L30.303,-0.317 Q32.111,-0.317 32.980,-1.035 Q33.852,-1.755 33.852,-3.260 Q33.852,-4.774 32.971,-5.522 Q32.093,-6.270 30.303,-6.270 L28.950,-6.270 L28.950,-0.317 Z" fill="#172332"/>
<path d="M17 36.4H31" fill="none" stroke="#172332" stroke-width="0.7" stroke-linecap="round"/>
</svg>